<svg xmlns="http://www.w3.org/2000/svg" width="85.094" height="85.094" viewBox="0 0 85.094 85.094">
  <g id="Group_2935" data-name="Group 2935" transform="translate(-1208 -287)">
    <path id="Rectangle" d="M2,0H83.094a2,2,0,0,1,2,2V83.094a2,2,0,0,1-2,2H2a2,2,0,0,1-2-2V2A2,2,0,0,1,2,0Z" transform="translate(1208 287)" fill="#cecece"/>
    <path id="Mask" d="M32.731,32.731H0V28.64a4.855,4.855,0,0,1,1.789-3.574,14.178,14.178,0,0,1,4.345-2.558,30.376,30.376,0,0,1,10.231-2.051A30.376,30.376,0,0,1,26.6,22.508a14.178,14.178,0,0,1,4.345,2.558,4.855,4.855,0,0,1,1.789,3.574v4.09ZM16.366,16.366a8.183,8.183,0,1,1,8.183-8.183A8.192,8.192,0,0,1,16.366,16.366Z" transform="translate(1234.182 313.182)" fill="#fff"/>
  </g>
</svg>
