<svg id="logo" xmlns="http://www.w3.org/2000/svg" width="123.323" height="36.325" viewBox="0 0 123.323 36.325">
  <path id="Path_3" data-name="Path 3" d="M356.991,346.388v.59h-1.162v3.274h-.719v-3.274h-1.169v-.59Z" transform="translate(-353.941 -314.892)" fill="#2a2b31"/>
  <path id="Path_4" data-name="Path 4" d="M371.822,349.913v-3.97h.659v1.525a1.474,1.474,0,0,1,.353-.247,1.032,1.032,0,0,1,.452-.093,1,1,0,0,1,.4.076.8.8,0,0,1,.29.215.957.957,0,0,1,.176.328,1.42,1.42,0,0,1,.059.422v1.744h-.659v-1.744a.585.585,0,0,0-.117-.389.427.427,0,0,0-.348-.138.7.7,0,0,0-.322.077,1.187,1.187,0,0,0-.283.21v1.983Z" transform="translate(-367.55 -314.553)" fill="#2a2b31"/>
  <path id="Path_5" data-name="Path 5" d="M388.443,350.908a1.34,1.34,0,0,1,.477.083,1.056,1.056,0,0,1,.375.242,1.094,1.094,0,0,1,.246.391,1.453,1.453,0,0,1,.088.527,1.093,1.093,0,0,1-.006.124.209.209,0,0,1-.025.078.1.1,0,0,1-.048.039.176.176,0,0,1-.075.014h-1.694a.944.944,0,0,0,.227.619.714.714,0,0,0,.526.2.879.879,0,0,0,.275-.037,1.123,1.123,0,0,0,.2-.084c.056-.029.108-.056.15-.082a.254.254,0,0,1,.128-.036.144.144,0,0,1,.069.015.191.191,0,0,1,.051.046l.193.24a1.043,1.043,0,0,1-.246.214,1.265,1.265,0,0,1-.284.138,1.383,1.383,0,0,1-.3.075,2.341,2.341,0,0,1-.3.021,1.455,1.455,0,0,1-.532-.1,1.155,1.155,0,0,1-.428-.278,1.319,1.319,0,0,1-.286-.46,1.793,1.793,0,0,1-.1-.635,1.494,1.494,0,0,1,.091-.527,1.268,1.268,0,0,1,.26-.431,1.232,1.232,0,0,1,.415-.289A1.374,1.374,0,0,1,388.443,350.908Zm.012.474a.607.607,0,0,0-.451.163.807.807,0,0,0-.208.462h1.24a.841.841,0,0,0-.033-.241.585.585,0,0,0-.107-.2.523.523,0,0,0-.181-.136A.617.617,0,0,0,388.455,351.382Z" transform="translate(-379.196 -318.332)" fill="#2a2b31"/>
  <path id="Path_6" data-name="Path 6" d="M411.866,348.893v1.359h-.718v-3.864h1.258a2.2,2.2,0,0,1,.672.091,1.308,1.308,0,0,1,.467.252,1,1,0,0,1,.272.393,1.432,1.432,0,0,1-.005,1.01,1.061,1.061,0,0,1-.281.4,1.27,1.27,0,0,1-.467.262,2.1,2.1,0,0,1-.658.1h-.54Zm0-.563h.54a1.124,1.124,0,0,0,.345-.049.66.66,0,0,0,.244-.143.6.6,0,0,0,.144-.224.863.863,0,0,0,.047-.294.805.805,0,0,0-.047-.281.589.589,0,0,0-.144-.213.684.684,0,0,0-.244-.136,1.211,1.211,0,0,0-.345-.045h-.54Z" transform="translate(-397.481 -314.892)" fill="#2a2b31"/>
  <path id="Path_7" data-name="Path 7" d="M428.462,350.908a1.524,1.524,0,0,1,.557.1,1.2,1.2,0,0,1,.427.28,1.3,1.3,0,0,1,.273.444,1.85,1.85,0,0,1,0,1.172,1.3,1.3,0,0,1-.273.447,1.171,1.171,0,0,1-.427.284,1.627,1.627,0,0,1-1.116,0,1.164,1.164,0,0,1-.428-.284,1.232,1.232,0,0,1-.275-.447,1.807,1.807,0,0,1,0-1.172,1.225,1.225,0,0,1,.275-.444,1.2,1.2,0,0,1,.428-.28A1.532,1.532,0,0,1,428.462,350.908Zm0,2.317a.582.582,0,0,0,.506-.23,1.466,1.466,0,0,0,0-1.349.573.573,0,0,0-.506-.233.585.585,0,0,0-.513.233,1.153,1.153,0,0,0-.167.677,1.134,1.134,0,0,0,.167.67A.586.586,0,0,0,428.462,353.225Z" transform="translate(-409.622 -318.332)" fill="#2a2b31"/>
  <path id="Path_8" data-name="Path 8" d="M442.57,351.066h.523a.222.222,0,0,1,.127.036.157.157,0,0,1,.064.087l.393,1.466c.021.079.039.158.053.234s.024.154.037.229q.028-.112.063-.229c.022-.075.047-.155.071-.234l.454-1.472a.168.168,0,0,1,.064-.087.186.186,0,0,1,.112-.035h.291a.2.2,0,0,1,.12.035.168.168,0,0,1,.064.087l.45,1.5q.034.116.063.224c.018.071.037.144.055.219.012-.078.025-.154.04-.23s.035-.157.057-.238l.407-1.466a.144.144,0,0,1,.064-.087.2.2,0,0,1,.118-.036h.5l-.868,2.742h-.533c-.055,0-.1-.038-.122-.117l-.5-1.585c-.015-.051-.03-.1-.043-.155s-.025-.106-.035-.156c-.01.053-.022.107-.034.158s-.028.107-.043.16l-.5,1.579a.143.143,0,0,1-.144.117h-.5Z" transform="translate(-421.396 -318.449)" fill="#2a2b31"/>
  <path id="Path_9" data-name="Path 9" d="M465.574,350.908a1.34,1.34,0,0,1,.477.083,1.079,1.079,0,0,1,.376.242,1.1,1.1,0,0,1,.244.391,1.451,1.451,0,0,1,.089.527.715.715,0,0,1-.008.124.185.185,0,0,1-.023.078.089.089,0,0,1-.045.039.188.188,0,0,1-.076.014h-1.7a.939.939,0,0,0,.228.619.708.708,0,0,0,.523.2.889.889,0,0,0,.278-.037,1.153,1.153,0,0,0,.2-.084c.057-.029.108-.056.152-.082a.252.252,0,0,1,.127-.036.15.15,0,0,1,.071.015.2.2,0,0,1,.051.046l.192.24a1.046,1.046,0,0,1-.246.214,1.282,1.282,0,0,1-.285.138,1.35,1.35,0,0,1-.3.075,2.316,2.316,0,0,1-.3.021,1.454,1.454,0,0,1-.532-.1,1.157,1.157,0,0,1-.427-.278,1.351,1.351,0,0,1-.287-.46,1.768,1.768,0,0,1-.1-.635,1.506,1.506,0,0,1,.091-.527,1.239,1.239,0,0,1,.261-.431,1.208,1.208,0,0,1,.414-.289A1.382,1.382,0,0,1,465.574,350.908Zm.013.474a.6.6,0,0,0-.451.163.811.811,0,0,0-.21.462h1.242a.854.854,0,0,0-.035-.241.593.593,0,0,0-.106-.2.537.537,0,0,0-.182-.136A.61.61,0,0,0,465.587,351.382Z" transform="translate(-437.901 -318.332)" fill="#2a2b31"/>
  <path id="Path_10" data-name="Path 10" d="M480.344,353.668v-2.742h.386a.211.211,0,0,1,.143.039.208.208,0,0,1,.053.128l.042.332a1.255,1.255,0,0,1,.344-.4.725.725,0,0,1,.444-.147.577.577,0,0,1,.336.091l-.086.5a.094.094,0,0,1-.035.068.12.12,0,0,1-.072.02.427.427,0,0,1-.109-.02.92.92,0,0,0-.184-.017.556.556,0,0,0-.353.113.861.861,0,0,0-.249.333v1.707h-.66Z" transform="translate(-450.145 -318.308)" fill="#2a2b31"/>
  <path id="Path_11" data-name="Path 11" d="M501.078,350.908a1.522,1.522,0,0,1,.557.1,1.19,1.19,0,0,1,.426.28,1.246,1.246,0,0,1,.273.444,1.839,1.839,0,0,1,0,1.172,1.251,1.251,0,0,1-.273.447,1.168,1.168,0,0,1-.426.284,1.627,1.627,0,0,1-1.116,0,1.2,1.2,0,0,1-.429-.284,1.278,1.278,0,0,1-.274-.447,1.8,1.8,0,0,1,0-1.172,1.27,1.27,0,0,1,.274-.444,1.228,1.228,0,0,1,.429-.28A1.535,1.535,0,0,1,501.078,350.908Zm0,2.317a.582.582,0,0,0,.507-.23,1.464,1.464,0,0,0,0-1.349.572.572,0,0,0-.507-.233.586.586,0,0,0-.513.233,1.157,1.157,0,0,0-.166.677,1.139,1.139,0,0,0,.166.67A.587.587,0,0,0,501.078,353.225Z" transform="translate(-464.89 -318.332)" fill="#2a2b31"/>
  <path id="Path_12" data-name="Path 12" d="M515.778,350.035v-2.244l-.238-.037a.249.249,0,0,1-.124-.055.14.14,0,0,1-.047-.112v-.27h.409v-.2a1.193,1.193,0,0,1,.071-.424.867.867,0,0,1,.2-.316.88.88,0,0,1,.323-.2,1.227,1.227,0,0,1,.427-.07,1.168,1.168,0,0,1,.354.052l-.014.333a.1.1,0,0,1-.073.093.5.5,0,0,1-.154.02.786.786,0,0,0-.209.026.36.36,0,0,0-.158.088.416.416,0,0,0-.1.165.856.856,0,0,0-.034.255v.183h.714v.471h-.692v2.246Z" transform="translate(-476.802 -314.675)" fill="#2a2b31"/>
  <path id="Path_13" data-name="Path 13" d="M539.049,348.319a2.082,2.082,0,0,1-.143.782,1.752,1.752,0,0,1-.4.611,1.792,1.792,0,0,1-.618.4,2.137,2.137,0,0,1-.8.142h-1.476v-3.864h1.476a2.187,2.187,0,0,1,.8.142,1.835,1.835,0,0,1,.618.4,1.732,1.732,0,0,1,.4.609A2.072,2.072,0,0,1,539.049,348.319Zm-.734,0a1.78,1.78,0,0,0-.086-.57,1.207,1.207,0,0,0-.244-.427,1.046,1.046,0,0,0-.383-.27,1.343,1.343,0,0,0-.51-.093h-.751v2.721h.751a1.329,1.329,0,0,0,.51-.093,1.046,1.046,0,0,0,.383-.27,1.2,1.2,0,0,0,.244-.427A1.778,1.778,0,0,0,538.315,348.319Z" transform="translate(-492.212 -314.892)" fill="#2a2b31"/>
  <path id="Path_14" data-name="Path 14" d="M556.209,346.39a.376.376,0,0,1-.034.16.453.453,0,0,1-.226.22.392.392,0,0,1-.166.035.37.37,0,0,1-.162-.035.381.381,0,0,1-.134-.091.389.389,0,0,1-.088-.13.375.375,0,0,1-.034-.16.423.423,0,0,1,.034-.166.439.439,0,0,1,.088-.133.419.419,0,0,1,.134-.09.392.392,0,0,1,.162-.035.415.415,0,0,1,.166.035.423.423,0,0,1,.134.09.429.429,0,0,1,.092.133A.421.421,0,0,1,556.209,346.39Zm-.1.8v2.742h-.661v-2.742Z" transform="translate(-507.243 -314.572)" fill="#2a2b31"/>
  <path id="Path_15" data-name="Path 15" d="M564.969,353.693v-2.742h.4a.162.162,0,0,1,.168.122l.043.2a1.525,1.525,0,0,1,.15-.148.949.949,0,0,1,.17-.114.845.845,0,0,1,.193-.076.856.856,0,0,1,.225-.028.637.637,0,0,1,.426.141.847.847,0,0,1,.251.373.824.824,0,0,1,.16-.234.914.914,0,0,1,.456-.25,1.178,1.178,0,0,1,.26-.029,1.069,1.069,0,0,1,.4.07.738.738,0,0,1,.3.2.887.887,0,0,1,.184.325,1.425,1.425,0,0,1,.063.442v1.744h-.659V351.95a.578.578,0,0,0-.117-.394.415.415,0,0,0-.335-.132.5.5,0,0,0-.189.034.436.436,0,0,0-.152.1.454.454,0,0,0-.1.165.641.641,0,0,0-.037.227v1.744h-.663V351.95a.6.6,0,0,0-.111-.4.418.418,0,0,0-.328-.124.545.545,0,0,0-.265.07.944.944,0,0,0-.232.193v2.008h-.66Z" transform="translate(-514.552 -318.334)" fill="#2a2b31"/>
  <path id="Path_16" data-name="Path 16" d="M587.7,350.908a1.334,1.334,0,0,1,.477.083,1.062,1.062,0,0,1,.376.242,1.094,1.094,0,0,1,.246.391,1.464,1.464,0,0,1,.088.527,1.148,1.148,0,0,1-.005.124.217.217,0,0,1-.024.078.092.092,0,0,1-.047.039.187.187,0,0,1-.075.014h-1.7a.94.94,0,0,0,.228.619.709.709,0,0,0,.524.2.874.874,0,0,0,.275-.037,1.107,1.107,0,0,0,.2-.084c.058-.029.108-.056.154-.082a.246.246,0,0,1,.126-.036.139.139,0,0,1,.068.015.174.174,0,0,1,.052.046l.192.24a1.092,1.092,0,0,1-.245.214,1.333,1.333,0,0,1-.286.138,1.349,1.349,0,0,1-.3.075,2.376,2.376,0,0,1-.3.021,1.451,1.451,0,0,1-.531-.1,1.154,1.154,0,0,1-.428-.278,1.35,1.35,0,0,1-.285-.46,1.786,1.786,0,0,1-.105-.635,1.464,1.464,0,0,1,.093-.527,1.218,1.218,0,0,1,.26-.431,1.2,1.2,0,0,1,.414-.289A1.375,1.375,0,0,1,587.7,350.908Zm.015.474a.6.6,0,0,0-.452.163.8.8,0,0,0-.21.462h1.24a.841.841,0,0,0-.034-.241.566.566,0,0,0-.107-.2.523.523,0,0,0-.182-.136A.611.611,0,0,0,587.719,351.382Z" transform="translate(-530.852 -318.332)" fill="#2a2b31"/>
  <path id="Path_17" data-name="Path 17" d="M602.477,353.693V350.95h.4a.16.16,0,0,1,.168.122l.047.215a1.458,1.458,0,0,1,.174-.155,1.33,1.33,0,0,1,.195-.12.963.963,0,0,1,.221-.078,1.185,1.185,0,0,1,.256-.026.994.994,0,0,1,.4.076.791.791,0,0,1,.291.215.926.926,0,0,1,.176.328,1.4,1.4,0,0,1,.061.421v1.744h-.661v-1.744a.583.583,0,0,0-.116-.388.429.429,0,0,0-.349-.138.691.691,0,0,0-.32.077,1.151,1.151,0,0,0-.284.21v1.983h-.66Z" transform="translate(-543.099 -318.333)" fill="#2a2b31"/>
  <path id="Path_18" data-name="Path 18" d="M619.419,351.485a.181.181,0,0,1-.056.061.17.17,0,0,1-.075.017.235.235,0,0,1-.1-.028l-.126-.059a1.3,1.3,0,0,0-.165-.06.735.735,0,0,0-.217-.027.507.507,0,0,0-.307.084.256.256,0,0,0-.113.217.2.2,0,0,0,.059.147.5.5,0,0,0,.151.107,1.694,1.694,0,0,0,.216.081c.079.024.163.049.245.079s.166.061.247.1a.836.836,0,0,1,.215.139.627.627,0,0,1,.152.2.64.64,0,0,1,.058.283.9.9,0,0,1-.073.365.8.8,0,0,1-.211.289,1.063,1.063,0,0,1-.342.19,1.524,1.524,0,0,1-.47.067,1.5,1.5,0,0,1-.277-.025,1.652,1.652,0,0,1-.259-.071,1.31,1.31,0,0,1-.229-.107.986.986,0,0,1-.185-.134l.151-.25a.2.2,0,0,1,.069-.069.187.187,0,0,1,.1-.025.208.208,0,0,1,.117.035c.038.024.08.048.127.076a1.3,1.3,0,0,0,.17.074.72.72,0,0,0,.248.035.614.614,0,0,0,.2-.028.376.376,0,0,0,.138-.074.253.253,0,0,0,.081-.105.3.3,0,0,0,.025-.121.231.231,0,0,0-.057-.161.46.46,0,0,0-.152-.1,1.385,1.385,0,0,0-.217-.084c-.082-.023-.164-.05-.248-.079a2.011,2.011,0,0,1-.248-.1.778.778,0,0,1-.217-.144.682.682,0,0,1-.153-.216.771.771,0,0,1-.057-.311.794.794,0,0,1,.068-.321.729.729,0,0,1,.2-.265.962.962,0,0,1,.323-.183,1.5,1.5,0,0,1,.963.025,1.2,1.2,0,0,1,.388.246Z" transform="translate(-554.572 -318.332)" fill="#2a2b31"/>
  <path id="Path_19" data-name="Path 19" d="M632.355,346.39a.371.371,0,0,1-.035.16.394.394,0,0,1-.093.13.382.382,0,0,1-.134.091.393.393,0,0,1-.166.035.376.376,0,0,1-.162-.035.367.367,0,0,1-.131-.091.383.383,0,0,1-.09-.13.357.357,0,0,1-.034-.16.4.4,0,0,1,.034-.166.432.432,0,0,1,.09-.133.4.4,0,0,1,.131-.09.4.4,0,0,1,.162-.035.416.416,0,0,1,.166.035.424.424,0,0,1,.134.09.439.439,0,0,1,.093.133A.419.419,0,0,1,632.355,346.39Zm-.1.8v2.742h-.66v-2.742Z" transform="translate(-565.195 -314.572)" fill="#2a2b31"/>
  <path id="Path_20" data-name="Path 20" d="M641.676,350.908a1.512,1.512,0,0,1,.557.1,1.194,1.194,0,0,1,.428.28,1.263,1.263,0,0,1,.272.444,1.828,1.828,0,0,1,0,1.172,1.267,1.267,0,0,1-.272.447,1.171,1.171,0,0,1-.428.284,1.623,1.623,0,0,1-1.115,0,1.189,1.189,0,0,1-.429-.284,1.256,1.256,0,0,1-.276-.447,1.819,1.819,0,0,1,0-1.172,1.249,1.249,0,0,1,.276-.444,1.22,1.22,0,0,1,.429-.28A1.525,1.525,0,0,1,641.676,350.908Zm0,2.317a.584.584,0,0,0,.507-.23,1.46,1.46,0,0,0,0-1.349.575.575,0,0,0-.507-.233.589.589,0,0,0-.513.233,1.158,1.158,0,0,0-.166.677,1.139,1.139,0,0,0,.166.67A.59.59,0,0,0,641.676,353.225Z" transform="translate(-571.898 -318.332)" fill="#2a2b31"/>
  <path id="Path_21" data-name="Path 21" d="M657.186,353.693V350.95h.4a.164.164,0,0,1,.169.122l.045.215a1.43,1.43,0,0,1,.175-.155,1.3,1.3,0,0,1,.194-.12.97.97,0,0,1,.221-.078,1.194,1.194,0,0,1,.257-.026.986.986,0,0,1,.4.076.785.785,0,0,1,.291.215.907.907,0,0,1,.175.328,1.388,1.388,0,0,1,.061.421v1.744h-.661v-1.744a.587.587,0,0,0-.116-.388.426.426,0,0,0-.349-.138.7.7,0,0,0-.321.077,1.222,1.222,0,0,0-.283.21v1.983h-.66Z" transform="translate(-584.737 -318.333)" fill="#2a2b31"/>
  <path id="Path_22" data-name="Path 22" d="M674.975,353.666h-.3a.316.316,0,0,1-.145-.027.173.173,0,0,1-.081-.115l-.059-.194a2.26,2.26,0,0,1-.2.165,1.224,1.224,0,0,1-.208.118,1.1,1.1,0,0,1-.226.072,1.4,1.4,0,0,1-.267.024,1.08,1.08,0,0,1-.322-.046.689.689,0,0,1-.253-.142.654.654,0,0,1-.165-.232.862.862,0,0,1-.059-.325.65.65,0,0,1,.082-.308.763.763,0,0,1,.273-.271,1.678,1.678,0,0,1,.5-.2,3.183,3.183,0,0,1,.782-.08v-.161a.607.607,0,0,0-.116-.411.421.421,0,0,0-.337-.133.886.886,0,0,0-.268.035,1.483,1.483,0,0,0-.186.085l-.145.085a.3.3,0,0,1-.146.037.193.193,0,0,1-.115-.034.351.351,0,0,1-.077-.086l-.12-.212a1.628,1.628,0,0,1,1.141-.432,1.1,1.1,0,0,1,.43.078.914.914,0,0,1,.318.22.937.937,0,0,1,.2.334,1.3,1.3,0,0,1,.068.428v1.732Zm-1.283-.41a.782.782,0,0,0,.187-.02.643.643,0,0,0,.163-.055.881.881,0,0,0,.147-.09,1.479,1.479,0,0,0,.142-.129V352.5a2.634,2.634,0,0,0-.482.037,1.208,1.208,0,0,0-.311.091.4.4,0,0,0-.167.132.332.332,0,0,0,.052.414A.436.436,0,0,0,673.692,353.256Z" transform="translate(-596.537 -318.307)" fill="#2a2b31"/>
  <path id="Path_23" data-name="Path 23" d="M689.176,345.943v3.97h-.66v-3.97Z" transform="translate(-608.582 -314.553)" fill="#2a2b31"/>
  <path id="Path_24" data-name="Path 24" d="M707.271,346.388v.59h-1.164v3.274h-.718v-3.274H704.22v-.59Z" transform="translate(-620.534 -314.892)" fill="#2a2b31"/>
  <path id="Path_25" data-name="Path 25" d="M720.36,350.908a1.34,1.34,0,0,1,.477.083,1.061,1.061,0,0,1,.375.242,1.1,1.1,0,0,1,.246.391,1.462,1.462,0,0,1,.089.527,1.124,1.124,0,0,1-.007.124.2.2,0,0,1-.025.078.09.09,0,0,1-.047.039.178.178,0,0,1-.075.014H719.7a.94.94,0,0,0,.227.619.712.712,0,0,0,.524.2.886.886,0,0,0,.277-.037,1.18,1.18,0,0,0,.2-.084c.056-.029.109-.056.152-.082a.247.247,0,0,1,.126-.036.154.154,0,0,1,.071.015.166.166,0,0,1,.049.046l.194.24a1.042,1.042,0,0,1-.247.214,1.269,1.269,0,0,1-.284.138,1.361,1.361,0,0,1-.3.075,2.34,2.34,0,0,1-.3.021,1.451,1.451,0,0,1-.532-.1,1.153,1.153,0,0,1-.427-.278,1.326,1.326,0,0,1-.287-.46,1.769,1.769,0,0,1-.1-.635,1.522,1.522,0,0,1,.091-.527,1.254,1.254,0,0,1,.262-.431,1.219,1.219,0,0,1,.413-.289A1.381,1.381,0,0,1,720.36,350.908Zm.014.474a.606.606,0,0,0-.452.163.809.809,0,0,0-.209.462h1.24a.839.839,0,0,0-.034-.241.612.612,0,0,0-.107-.2.534.534,0,0,0-.181-.136A.612.612,0,0,0,720.374,351.382Z" transform="translate(-631.815 -318.332)" fill="#2a2b31"/>
  <path id="Path_26" data-name="Path 26" d="M736.472,351.531a.347.347,0,0,1-.057.062.144.144,0,0,1-.082.021.177.177,0,0,1-.1-.033c-.032-.018-.07-.043-.115-.068a.951.951,0,0,0-.157-.07.7.7,0,0,0-.23-.029.685.685,0,0,0-.305.064.564.564,0,0,0-.218.179.835.835,0,0,0-.13.284,1.593,1.593,0,0,0-.043.378,1.55,1.55,0,0,0,.046.389.864.864,0,0,0,.136.288.571.571,0,0,0,.214.176.63.63,0,0,0,.284.061.7.7,0,0,0,.255-.039.732.732,0,0,0,.164-.085c.045-.032.084-.06.117-.086a.17.17,0,0,1,.111-.038.13.13,0,0,1,.119.061l.19.24a1.086,1.086,0,0,1-.238.214,1.141,1.141,0,0,1-.267.138,1.172,1.172,0,0,1-.283.075,2.2,2.2,0,0,1-.292.022,1.216,1.216,0,0,1-.48-.1,1.074,1.074,0,0,1-.39-.275,1.306,1.306,0,0,1-.265-.446,1.713,1.713,0,0,1-.1-.6,1.748,1.748,0,0,1,.087-.56,1.255,1.255,0,0,1,.255-.445,1.151,1.151,0,0,1,.417-.3,1.449,1.449,0,0,1,.573-.107,1.372,1.372,0,0,1,.537.1,1.3,1.3,0,0,1,.415.282Z" transform="translate(-643.474 -318.334)" fill="#2a2b31"/>
  <path id="Path_27" data-name="Path 27" d="M749.164,349.913v-3.97h.66v1.525a1.455,1.455,0,0,1,.353-.247,1.025,1.025,0,0,1,.452-.093,1,1,0,0,1,.4.076.776.776,0,0,1,.288.215.927.927,0,0,1,.178.328,1.443,1.443,0,0,1,.061.422v1.744h-.662v-1.744a.6.6,0,0,0-.116-.389.43.43,0,0,0-.349-.138.692.692,0,0,0-.321.077,1.155,1.155,0,0,0-.284.21v1.983Z" transform="translate(-654.741 -314.553)" fill="#2a2b31"/>
  <path id="Path_28" data-name="Path 28" d="M765.237,353.693V350.95h.4a.164.164,0,0,1,.169.122l.044.215a1.529,1.529,0,0,1,.175-.155,1.4,1.4,0,0,1,.195-.12.962.962,0,0,1,.221-.078,1.192,1.192,0,0,1,.257-.026.99.99,0,0,1,.4.076.786.786,0,0,1,.291.215.933.933,0,0,1,.175.328,1.364,1.364,0,0,1,.062.421v1.744h-.662v-1.744a.588.588,0,0,0-.116-.388.428.428,0,0,0-.349-.138.7.7,0,0,0-.321.077,1.161,1.161,0,0,0-.284.21v1.983h-.66Z" transform="translate(-666.974 -318.333)" fill="#2a2b31"/>
  <path id="Path_29" data-name="Path 29" d="M781.883,350.908a1.524,1.524,0,0,1,.558.1,1.2,1.2,0,0,1,.426.28,1.249,1.249,0,0,1,.274.444,1.859,1.859,0,0,1,0,1.172,1.258,1.258,0,0,1-.274.447,1.177,1.177,0,0,1-.426.284,1.631,1.631,0,0,1-1.117,0,1.205,1.205,0,0,1-.429-.284,1.283,1.283,0,0,1-.276-.447,1.828,1.828,0,0,1,0-1.172,1.276,1.276,0,0,1,.276-.444,1.237,1.237,0,0,1,.429-.28A1.534,1.534,0,0,1,781.883,350.908Zm0,2.317a.581.581,0,0,0,.506-.23,1.468,1.468,0,0,0,0-1.349.572.572,0,0,0-.506-.233.585.585,0,0,0-.513.233,1.162,1.162,0,0,0-.165.677,1.143,1.143,0,0,0,.165.67A.586.586,0,0,0,781.883,353.225Z" transform="translate(-678.607 -318.332)" fill="#2a2b31"/>
  <path id="Path_30" data-name="Path 30" d="M798.235,345.943v3.97h-.66v-3.97Z" transform="translate(-691.586 -314.553)" fill="#2a2b31"/>
  <path id="Path_31" data-name="Path 31" d="M807.38,350.908a1.516,1.516,0,0,1,.557.1,1.19,1.19,0,0,1,.427.28,1.255,1.255,0,0,1,.273.444,1.839,1.839,0,0,1,0,1.172,1.26,1.26,0,0,1-.273.447,1.167,1.167,0,0,1-.427.284,1.492,1.492,0,0,1-.557.1,1.513,1.513,0,0,1-.559-.1,1.194,1.194,0,0,1-.429-.284,1.287,1.287,0,0,1-.276-.447,1.823,1.823,0,0,1,0-1.172,1.28,1.28,0,0,1,.276-.444,1.225,1.225,0,0,1,.429-.28A1.537,1.537,0,0,1,807.38,350.908Zm0,2.317a.581.581,0,0,0,.507-.23,1.458,1.458,0,0,0,0-1.349.572.572,0,0,0-.507-.233.584.584,0,0,0-.512.233,1.156,1.156,0,0,0-.167.677,1.137,1.137,0,0,0,.167.67A.585.585,0,0,0,807.38,353.225Z" transform="translate(-698.013 -318.332)" fill="#2a2b31"/>
  <path id="Path_32" data-name="Path 32" d="M822.988,350.883a1.562,1.562,0,0,1,.332.036,1.209,1.209,0,0,1,.283.105h.789v.245a.136.136,0,0,1-.032.1.185.185,0,0,1-.109.048l-.247.045a.883.883,0,0,1,.042.148.876.876,0,0,1-.067.53.828.828,0,0,1-.225.279,1.031,1.031,0,0,1-.34.178,1.377,1.377,0,0,1-.425.065,1.579,1.579,0,0,1-.3-.03c-.087.053-.129.11-.129.176a.13.13,0,0,0,.076.122.694.694,0,0,0,.2.055,2.556,2.556,0,0,0,.283.015c.1,0,.214,0,.324.015a2.761,2.761,0,0,1,.323.047.962.962,0,0,1,.282.1.6.6,0,0,1,.2.2.61.61,0,0,1,.076.321.774.774,0,0,1-.089.354.972.972,0,0,1-.259.305,1.33,1.33,0,0,1-.416.216,1.788,1.788,0,0,1-.562.082,2.145,2.145,0,0,1-.542-.061,1.246,1.246,0,0,1-.38-.159.7.7,0,0,1-.227-.232.553.553,0,0,1-.074-.273.459.459,0,0,1,.117-.322.794.794,0,0,1,.326-.211.459.459,0,0,1-.163-.149.428.428,0,0,1-.061-.242.421.421,0,0,1,.021-.129.592.592,0,0,1,.066-.129.612.612,0,0,1,.112-.121.7.7,0,0,1,.157-.1.87.87,0,0,1-.327-.3.861.861,0,0,1-.037-.806.818.818,0,0,1,.227-.28,1.036,1.036,0,0,1,.344-.177A1.5,1.5,0,0,1,822.988,350.883Zm.723,2.905a.182.182,0,0,0-.047-.133.3.3,0,0,0-.13-.082,1.153,1.153,0,0,0-.194-.043,2.061,2.061,0,0,0-.236-.013h-.256a1.079,1.079,0,0,1-.255-.029.624.624,0,0,0-.181.146.3.3,0,0,0-.067.194.263.263,0,0,0,.036.135.291.291,0,0,0,.114.107.671.671,0,0,0,.205.072,1.6,1.6,0,0,0,.307.026,1.656,1.656,0,0,0,.319-.029.744.744,0,0,0,.22-.079.329.329,0,0,0,.128-.12A.3.3,0,0,0,823.711,353.788Zm-.723-1.552a.687.687,0,0,0,.213-.032.458.458,0,0,0,.152-.094.388.388,0,0,0,.09-.141.493.493,0,0,0,.031-.182.431.431,0,0,0-.121-.321.619.619,0,0,0-.731,0,.426.426,0,0,0-.121.321.507.507,0,0,0,.031.18.37.37,0,0,0,.09.141.438.438,0,0,0,.153.1A.7.7,0,0,0,822.988,352.236Z" transform="translate(-710.001 -318.313)" fill="#2a2b31"/>
  <path id="Path_33" data-name="Path 33" d="M838.492,346.39a.385.385,0,0,1-.035.16.376.376,0,0,1-.093.13.43.43,0,0,1-.3.125.358.358,0,0,1-.159-.035.376.376,0,0,1-.134-.091.383.383,0,0,1-.089-.13.377.377,0,0,1-.033-.16.425.425,0,0,1,.033-.166.432.432,0,0,1,.089-.133.41.41,0,0,1,.134-.09.38.38,0,0,1,.159-.035.408.408,0,0,1,.167.035.426.426,0,0,1,.134.09.418.418,0,0,1,.093.133A.437.437,0,0,1,838.492,346.39Zm-.1.8v2.742h-.661v-2.742Z" transform="translate(-722.085 -314.572)" fill="#2a2b31"/>
  <path id="Path_34" data-name="Path 34" d="M847.792,350.908a1.335,1.335,0,0,1,.477.083,1.044,1.044,0,0,1,.375.242,1.108,1.108,0,0,1,.247.391,1.462,1.462,0,0,1,.088.527.871.871,0,0,1-.007.124.193.193,0,0,1-.023.078.1.1,0,0,1-.048.039.176.176,0,0,1-.073.014h-1.7a.953.953,0,0,0,.227.619.71.71,0,0,0,.524.2.883.883,0,0,0,.276-.037,1.163,1.163,0,0,0,.2-.084c.057-.029.107-.056.152-.082a.247.247,0,0,1,.127-.036.148.148,0,0,1,.07.015.174.174,0,0,1,.049.046l.193.24a1.078,1.078,0,0,1-.245.214,1.313,1.313,0,0,1-.286.138,1.334,1.334,0,0,1-.3.075,2.335,2.335,0,0,1-.3.021,1.46,1.46,0,0,1-.531-.1,1.158,1.158,0,0,1-.428-.278,1.359,1.359,0,0,1-.285-.46,1.777,1.777,0,0,1-.1-.635,1.522,1.522,0,0,1,.09-.527,1.235,1.235,0,0,1,.262-.431,1.213,1.213,0,0,1,.414-.289A1.382,1.382,0,0,1,847.792,350.908Zm.012.474a.6.6,0,0,0-.451.163.791.791,0,0,0-.208.462h1.24a.765.765,0,0,0-.036-.241.54.54,0,0,0-.106-.2.511.511,0,0,0-.182-.136A.6.6,0,0,0,847.8,351.382Z" transform="translate(-728.801 -318.332)" fill="#2a2b31"/>
  <path id="Path_35" data-name="Path 35" d="M863.423,351.485a.183.183,0,0,1-.057.061.163.163,0,0,1-.075.017.235.235,0,0,1-.1-.028l-.126-.059a1.29,1.29,0,0,0-.164-.06.755.755,0,0,0-.218-.027.508.508,0,0,0-.307.084.254.254,0,0,0-.111.217.206.206,0,0,0,.056.147.543.543,0,0,0,.152.107,1.635,1.635,0,0,0,.217.081c.08.024.161.049.244.079s.166.061.246.1a.813.813,0,0,1,.216.139.609.609,0,0,1,.21.486.872.872,0,0,1-.073.365.785.785,0,0,1-.211.289,1.051,1.051,0,0,1-.343.19,1.52,1.52,0,0,1-.47.067,1.5,1.5,0,0,1-.276-.025,1.612,1.612,0,0,1-.259-.071,1.269,1.269,0,0,1-.23-.107,1.047,1.047,0,0,1-.186-.134l.153-.25a.2.2,0,0,1,.069-.069.191.191,0,0,1,.1-.025.209.209,0,0,1,.116.035c.036.024.079.048.126.076a1.142,1.142,0,0,0,.171.074.709.709,0,0,0,.246.035.633.633,0,0,0,.2-.028.412.412,0,0,0,.138-.074.26.26,0,0,0,.08-.105.311.311,0,0,0,.025-.121.226.226,0,0,0-.057-.161.466.466,0,0,0-.152-.1,1.441,1.441,0,0,0-.216-.084c-.083-.023-.165-.05-.249-.079a1.945,1.945,0,0,1-.248-.1.773.773,0,0,1-.217-.144.672.672,0,0,1-.152-.216.766.766,0,0,1-.057-.311.778.778,0,0,1,.067-.321.724.724,0,0,1,.2-.265.967.967,0,0,1,.324-.183,1.346,1.346,0,0,1,.447-.068,1.379,1.379,0,0,1,.516.092,1.207,1.207,0,0,1,.387.246Z" transform="translate(-740.279 -318.332)" fill="#2a2b31"/>
  <g id="Group_5" data-name="Group 5" transform="translate(0.04 -4.606)">
    <path id="Path_36" data-name="Path 36" d="M375.479,229.157a13.048,13.048,0,0,1-.882,4.859,10.927,10.927,0,0,1-6.323,6.29,13.477,13.477,0,0,1-4.976.882h-9.189V217.125H363.3a13.348,13.348,0,0,1,4.976.889,11.26,11.26,0,0,1,3.844,2.481,11.014,11.014,0,0,1,2.479,3.8A13.022,13.022,0,0,1,375.479,229.157Zm-4.578,0a11.029,11.029,0,0,0-.531-3.553,7.528,7.528,0,0,0-1.514-2.665,6.5,6.5,0,0,0-2.389-1.669,8.178,8.178,0,0,0-3.169-.586h-4.679v16.94H363.3a8.18,8.18,0,0,0,3.169-.58,6.578,6.578,0,0,0,2.389-1.674,7.556,7.556,0,0,0,1.514-2.659A11.1,11.1,0,0,0,370.9,229.157Z" transform="translate(-354.109 -211.903)" fill="#2a2b31"/>
    <path id="Path_37" data-name="Path 37" d="M461.423,217.171a2.333,2.333,0,0,1-.217,1,2.769,2.769,0,0,1-.574.812,2.689,2.689,0,0,1-.84.558,2.547,2.547,0,0,1-1.032.211,2.454,2.454,0,0,1-1.008-.211,2.641,2.641,0,0,1-.823-.558,2.683,2.683,0,0,1-.556-.812,2.412,2.412,0,0,1-.209-1,2.538,2.538,0,0,1,.209-1.029,2.653,2.653,0,0,1,.556-.834,2.732,2.732,0,0,1,.823-.558,2.545,2.545,0,0,1,1.008-.205,2.643,2.643,0,0,1,1.032.205,2.783,2.783,0,0,1,.84.558,2.735,2.735,0,0,1,.574.834A2.453,2.453,0,0,1,461.423,217.171Zm-.615,4.978v17.075h-4.113V222.149Z" transform="translate(-431.065 -209.938)" fill="#2a2b31"/>
    <path id="Path_38" data-name="Path 38" d="M495.034,262.608V245.533h2.514a1.012,1.012,0,0,1,1.048.748l.266,1.267a9.342,9.342,0,0,1,.94-.916,5.624,5.624,0,0,1,1.049-.715,5.51,5.51,0,0,1,1.2-.476,5.175,5.175,0,0,1,1.406-.174,3.976,3.976,0,0,1,2.654.872,5.261,5.261,0,0,1,1.554,2.324,5.206,5.206,0,0,1,1-1.457,5.4,5.4,0,0,1,1.314-.992,5.989,5.989,0,0,1,1.523-.563,7.176,7.176,0,0,1,1.625-.185,6.732,6.732,0,0,1,2.511.434,4.8,4.8,0,0,1,1.847,1.263,5.532,5.532,0,0,1,1.141,2.03,8.843,8.843,0,0,1,.393,2.747v10.867h-4.112V251.741a3.646,3.646,0,0,0-.715-2.454,2.615,2.615,0,0,0-2.1-.823,3.213,3.213,0,0,0-1.175.212,2.861,2.861,0,0,0-.948.628,2.826,2.826,0,0,0-.639,1.024,3.905,3.905,0,0,0-.233,1.414v10.866H504.97V251.741a3.718,3.718,0,0,0-.69-2.5,2.582,2.582,0,0,0-2.04-.78,3.306,3.306,0,0,0-1.656.439,5.573,5.573,0,0,0-1.438,1.208v12.5h-4.111Z" transform="translate(-459.932 -233.322)" fill="#2a2b31"/>
    <path id="Path_40" data-name="Path 40" d="M683.216,247.424a6.876,6.876,0,0,1,2.589.482,5.792,5.792,0,0,1,2.064,1.408,6.391,6.391,0,0,1,1.362,2.27,8.983,8.983,0,0,1,.493,3.093.869.869,0,0,1-.108.5.423.423,0,0,1-.341.129H677.323v.315a11.286,11.286,0,0,0,.434,3.283,6.677,6.677,0,0,0,1.232,2.367,5.055,5.055,0,0,0,1.929,1.441,6.346,6.346,0,0,0,2.53.482,7.706,7.706,0,0,0,2.165-.271,8.073,8.073,0,0,0,2.53-1.235,1.094,1.094,0,0,1,.533-.271.38.38,0,0,1,.33.163l.434.536a4.641,4.641,0,0,1-1.057.932,7.626,7.626,0,0,1-1.466.737,10.879,10.879,0,0,1-1.731.493,9.737,9.737,0,0,1-1.855.184,7.931,7.931,0,0,1-3.094-.591,6.6,6.6,0,0,1-2.4-1.723,7.92,7.92,0,0,1-1.549-2.773,11.9,11.9,0,0,1-.544-3.754,10.2,10.2,0,0,1,.506-3.284,7.477,7.477,0,0,1,1.465-2.595,6.561,6.561,0,0,1,2.346-1.707A7.707,7.707,0,0,1,683.216,247.424Zm.024,1.181a6.233,6.233,0,0,0-2.292.4,5.033,5.033,0,0,0-1.755,1.149,5.82,5.82,0,0,0-1.195,1.8,8.122,8.122,0,0,0-.607,2.345h10.9a7.278,7.278,0,0,0-.365-2.389,5.078,5.078,0,0,0-1.029-1.787A4.471,4.471,0,0,0,685.3,249,5.27,5.27,0,0,0,683.24,248.605Z" transform="translate(-599.618 -234.964)" fill="#2a2b31"/>
    <path id="Path_41" data-name="Path 41" d="M759.07,249.906a1.825,1.825,0,0,1-.16.141.336.336,0,0,1-.209.06.852.852,0,0,1-.455-.227,6.009,6.009,0,0,0-.774-.493,6.517,6.517,0,0,0-1.209-.488,5.919,5.919,0,0,0-1.755-.227,6.074,6.074,0,0,0-2.538.509,5.072,5.072,0,0,0-1.864,1.457,6.7,6.7,0,0,0-1.156,2.3,11.828,11.828,0,0,0,.007,6.122,6.621,6.621,0,0,0,1.156,2.276,4.938,4.938,0,0,0,1.815,1.4,5.61,5.61,0,0,0,2.362.482,6.116,6.116,0,0,0,2.007-.282,6.576,6.576,0,0,0,1.33-.618,5.8,5.8,0,0,0,.832-.612.858.858,0,0,1,.493-.282.388.388,0,0,1,.333.163l.431.536a5,5,0,0,1-.964.932,6.668,6.668,0,0,1-1.314.747,7.928,7.928,0,0,1-1.59.488,8.79,8.79,0,0,1-1.791.179,7.159,7.159,0,0,1-2.888-.575,6.267,6.267,0,0,1-2.245-1.663,7.792,7.792,0,0,1-1.466-2.676,12.424,12.424,0,0,1-.024-7.053,7.792,7.792,0,0,1,1.457-2.7,6.544,6.544,0,0,1,2.347-1.755,7.682,7.682,0,0,1,3.185-.622,7.554,7.554,0,0,1,2.872.514,7.079,7.079,0,0,1,2.188,1.4Z" transform="translate(-653.086 -234.965)" fill="#2a2b31"/>
    <path id="Path_42" data-name="Path 42" d="M815.479,240.7V216.49h1.582v10.482a9.361,9.361,0,0,1,2.622-2.253,6.565,6.565,0,0,1,3.3-.839,6.245,6.245,0,0,1,2.405.433,4.411,4.411,0,0,1,1.723,1.246,5.548,5.548,0,0,1,1.032,1.967,8.922,8.922,0,0,1,.349,2.595V240.7h-1.582V230.12a5.656,5.656,0,0,0-1.065-3.651,3.936,3.936,0,0,0-3.261-1.328,5.746,5.746,0,0,0-3.029.845,8.768,8.768,0,0,0-2.5,2.3V240.7h-1.582Z" transform="translate(-705.252 -211.419)" fill="#2a2b31"/>
    <text id="t" transform="translate(62.321 28)" fill="#2a2b31" font-size="30" font-family="Helvetica-Light, Helvetica" font-weight="300"><tspan x="0" y="0">t</tspan></text>
  </g>
</svg>
