<svg xmlns="http://www.w3.org/2000/svg" width="18.137" height="16.122" viewBox="0 0 18.137 16.122">
  <path id="bullhorn" d="M18.137,7.053A1.512,1.512,0,0,0,17.13,5.628V2.015A2.015,2.015,0,0,0,15.115,0C13.068,1.763,10.642,4.031,6.55,4.031H1.511A1.511,1.511,0,0,0,0,5.542V8.565a1.511,1.511,0,0,0,1.511,1.511H2.874c-.59,2.036.078,3.665.592,5.272a.75.75,0,0,0,.312.406,4.015,4.015,0,0,0,2.953.162.757.757,0,0,0,.237-1.245c-.583-.568-.949-1.162-.623-1.916a.387.387,0,0,0-.033-.368,1.572,1.572,0,0,1,.9-2.291c3.7.228,5.971,2.344,7.9,4.01a2.015,2.015,0,0,0,2.015-2.015V8.479A1.512,1.512,0,0,0,18.137,7.053Zm-3.023,4.4A13.411,13.411,0,0,0,8.061,8.152v-2.2A13.411,13.411,0,0,0,15.115,2.65Z" fill="#0434ba"/>
</svg>
