<svg xmlns="http://www.w3.org/2000/svg" width="29.367" height="27.668" viewBox="0 0 29.367 27.668">
  <path id="hands-helping" d="M17.688,6.958H12.179v2.03a2.61,2.61,0,1,1-5.219,0V4.581L4.608,5.994A2.315,2.315,0,0,0,3.48,7.98V9.695l-2.9,1.675a1.157,1.157,0,0,0-.424,1.584l2.9,5.024A1.16,1.16,0,0,0,4.64,18.4l3.748-2.164h4.951a2.322,2.322,0,0,0,2.32-2.32h.58a1.159,1.159,0,0,0,1.16-1.16v-2.32h.29a.868.868,0,0,0,.87-.87V7.828A.868.868,0,0,0,17.688,6.958ZM23.042,5.6,20.142.579A1.16,1.16,0,0,0,18.558.155L14.811,2.319h-3.7a2.337,2.337,0,0,0-1.229.352l-1.214.758a1.152,1.152,0,0,0-.544.982V8.988a1.45,1.45,0,1,0,2.9,0V5.8h6.669a2.031,2.031,0,0,1,2.03,2.03V8.861l2.9-1.675A1.161,1.161,0,0,0,23.042,5.6Z" transform="translate(9.278) rotate(30)" fill="#fff"/>
</svg>
