<svg xmlns="http://www.w3.org/2000/svg" width="29.367" height="27.668" viewBox="0 0 29.367 27.668">
  <path id="hands-helping" d="M17.666,6.98H12.156V9.01a2.61,2.61,0,1,1-5.219,0V4.6L4.585,6.016A2.315,2.315,0,0,0,3.458,8V9.716l-2.9,1.675a1.157,1.157,0,0,0-.424,1.584L3.033,18a1.16,1.16,0,0,0,1.584.424l3.748-2.164h4.951a2.322,2.322,0,0,0,2.32-2.32h.58a1.159,1.159,0,0,0,1.16-1.16v-2.32h.29a.868.868,0,0,0,.87-.87V7.85A.868.868,0,0,0,17.666,6.98Zm5.353-1.356L20.119.6A1.16,1.16,0,0,0,18.536.177L14.788,2.341h-3.7a2.337,2.337,0,0,0-1.229.352L8.641,3.45a1.152,1.152,0,0,0-.544.982V9.01a1.45,1.45,0,1,0,2.9,0V5.82h6.669A2.031,2.031,0,0,1,19.7,7.85V8.883l2.9-1.675A1.161,1.161,0,0,0,23.019,5.624Z" transform="translate(9.309 -0.007) rotate(30)" fill="#0434ba"/>
</svg>
