<svg xmlns="http://www.w3.org/2000/svg" width="18.788" height="16.439" viewBox="0 0 18.788 16.439">
  <path id="wallet" d="M16.924,35.523H2.936a.587.587,0,1,1,0-1.174H17.026a.587.587,0,0,0,.587-.587A1.761,1.761,0,0,0,15.852,32H2.348A2.348,2.348,0,0,0,0,34.348V46.091a2.348,2.348,0,0,0,2.348,2.348H16.924a1.817,1.817,0,0,0,1.864-1.761V37.284A1.817,1.817,0,0,0,16.924,35.523Zm-1.659,7.633a1.174,1.174,0,1,1,1.174-1.174A1.174,1.174,0,0,1,15.265,43.155Z" transform="translate(0 -32)" fill="#fff"/>
</svg>
