<svg xmlns="http://www.w3.org/2000/svg" width="19.258" height="19.258" viewBox="0 0 19.258 19.258">
  <path id="Combined_Shape" data-name="Combined Shape" d="M10.994,19.258H8.251a.38.38,0,0,1-.377-.328l-.287-2.082a7.351,7.351,0,0,1-1.61-.685L4.284,17.439a.381.381,0,0,1-.5-.035l-1.94-1.94a.383.383,0,0,1-.034-.5l1.312-1.73A7.443,7.443,0,0,1,2.5,11.678L.327,11.372A.382.382,0,0,1,0,10.994V8.251a.381.381,0,0,1,.328-.377l2.207-.3a7.436,7.436,0,0,1,.628-1.5L1.82,4.284a.382.382,0,0,1,.034-.5L3.8,1.846a.38.38,0,0,1,.5-.034L6.07,3.159A7.392,7.392,0,0,1,7.577,2.53l.311-2.2A.382.382,0,0,1,8.264,0h2.744a.383.383,0,0,1,.378.328l.3,2.186a7.391,7.391,0,0,1,1.532.628L14.975,1.82a.38.38,0,0,1,.5.034L17.414,3.8a.382.382,0,0,1,.034.5L16.132,6.029a7.444,7.444,0,0,1,.655,1.556l2.143.3a.382.382,0,0,1,.327.377v2.744a.378.378,0,0,1-.328.378l-2.11.29a7.467,7.467,0,0,1-.653,1.61l1.272,1.691a.382.382,0,0,1-.035.5l-1.94,1.941a.383.383,0,0,1-.5.034L13.3,16.186a7.347,7.347,0,0,1-1.637.681l-.291,2.064A.382.382,0,0,1,10.994,19.258ZM9.659,7.308a2.38,2.38,0,1,0,2.353,2.379A2.369,2.369,0,0,0,9.659,7.308Z" fill="#0434ba"/>
</svg>
